<svg width="78" height="78" viewBox="0 0 78 78" fill="none" xmlns="http://www.w3.org/2000/svg">
<circle cx="39" cy="39" r="39" fill="#FF6B6B"/>
<path d="M32.8965 49.8745H28.3613V35.27H32.8965V49.8745ZM30.6265 33.2778C29.1763 33.2778 28 32.0767 28 30.6265C28 29.9299 28.2767 29.2618 28.7693 28.7693C29.2618 28.2767 29.9299 28 30.6265 28C31.323 28 31.9911 28.2767 32.4837 28.7693C32.9762 29.2618 33.2529 29.9299 33.2529 30.6265C33.2529 32.0767 32.0762 33.2778 30.6265 33.2778ZM49.8701 49.8745H45.3447V42.7651C45.3447 41.0708 45.3105 38.8979 42.9868 38.8979C40.6289 38.8979 40.2676 40.7388 40.2676 42.6431V49.8745H35.7373V35.27H40.0869V37.2622H40.1504C40.7559 36.1147 42.2349 34.9038 44.4414 34.9038C49.0313 34.9038 49.875 37.9263 49.875 41.8521V49.8745H49.8701Z" fill="#F4FAFF"/>
</svg>
